<svg xmlns="http://www.w3.org/2000/svg" viewBox="0 0 1058 876" font-family="sans-serif">
<rect width="1058" height="876" fill="white"/>
<text x="529.0" y="34" text-anchor="middle" font-size="22" font-weight="bold" fill="#0f172a">vLLM-Ascend 源码解读 · 全书地图（7 Part / 36 章）</text>
<rect x="24" y="80" width="490" height="184" rx="10" fill="#f8fafc" stroke="#e2e8f0" stroke-width="1"/>
<rect x="24" y="80" width="6" height="184" rx="3" fill="#2563eb"/>
<text x="42" y="105" font-size="16" font-weight="bold" fill="#2563eb">Part I</text>
<text x="128" y="105" font-size="13" fill="#475569">插件如何挂进 vLLM（三支柱）</text>
<text x="44" y="137" font-size="12.5" font-weight="bold" fill="#2563eb">ch01</text>
<text x="86" y="137" font-size="12.5" fill="#1e293b">鸟瞰：OOT 插件三支柱</text>
<text x="44" y="163" font-size="12.5" font-weight="bold" fill="#2563eb">ch02</text>
<text x="86" y="163" font-size="12.5" fill="#1e293b">entry points 与 NPUPlatform</text>
<text x="44" y="189" font-size="12.5" font-weight="bold" fill="#2563eb">ch03</text>
<text x="86" y="189" font-size="12.5" fill="#1e293b">两段式 monkey-patch</text>
<text x="44" y="215" font-size="12.5" font-weight="bold" fill="#2563eb">ch04</text>
<text x="86" y="215" font-size="12.5" fill="#1e293b">引擎核心 KV-cache patch</text>
<text x="44" y="241" font-size="12.5" font-weight="bold" fill="#2563eb">ch05</text>
<text x="86" y="241" font-size="12.5" fill="#1e293b">check_and_update_config</text>
<rect x="24" y="280" width="490" height="106" rx="10" fill="#f8fafc" stroke="#e2e8f0" stroke-width="1"/>
<rect x="24" y="280" width="6" height="106" rx="3" fill="#0891b2"/>
<text x="42" y="305" font-size="16" font-weight="bold" fill="#0891b2">Part II</text>
<text x="128" y="305" font-size="13" fill="#475569">通信器与 sleep-mode 分配器</text>
<text x="44" y="337" font-size="12.5" font-weight="bold" fill="#0891b2">ch06</text>
<text x="86" y="337" font-size="12.5" fill="#1e293b">NPUCommunicator 通信器</text>
<text x="44" y="363" font-size="12.5" font-weight="bold" fill="#0891b2">ch07</text>
<text x="86" y="363" font-size="12.5" fill="#1e293b">sleep-mode 与 camem 分配器</text>
<rect x="24" y="402" width="490" height="210" rx="10" fill="#f8fafc" stroke="#e2e8f0" stroke-width="1"/>
<rect x="24" y="402" width="6" height="210" rx="3" fill="#7c3aed"/>
<text x="42" y="427" font-size="16" font-weight="bold" fill="#7c3aed">Part III</text>
<text x="128" y="427" font-size="13" fill="#475569">组·热迁移·PD 分离</text>
<text x="44" y="459" font-size="12.5" font-weight="bold" fill="#7c3aed">ch08</text>
<text x="86" y="459" font-size="12.5" fill="#1e293b">昇腾并行组：MC2/TP/CP</text>
<rect x="38" y="470" width="462" height="21" rx="5" fill="#fffbeb" stroke="#f59e0b" stroke-width="1.3" stroke-dasharray="3,2"/>
<text x="44" y="485" font-size="12.5" font-weight="bold" fill="#b45309">ch09</text>
<text x="86" y="485" font-size="12.5" fill="#b45309">EPLB 均衡算法本体</text>
<rect x="466" y="472" width="34" height="16" rx="8" fill="#f59e0b"/>
<text x="483.0" y="484" text-anchor="middle" font-size="10" font-weight="bold" fill="white">原理</text>
<text x="44" y="511" font-size="12.5" font-weight="bold" fill="#7c3aed">ch10</text>
<text x="86" y="511" font-size="12.5" fill="#1e293b">EPLB：子进程规划+D2D迁移</text>
<text x="44" y="537" font-size="12.5" font-weight="bold" fill="#7c3aed">ch11</text>
<text x="86" y="537" font-size="12.5" fill="#1e293b">PD 分离：mooncake P2P</text>
<text x="44" y="563" font-size="12.5" font-weight="bold" fill="#7c3aed">ch12</text>
<text x="86" y="563" font-size="12.5" fill="#1e293b">KV 池化与 ascend_store</text>
<text x="44" y="589" font-size="12.5" font-weight="bold" fill="#7c3aed">ch13</text>
<text x="86" y="589" font-size="12.5" fill="#1e293b">KV 卸载：host/CPU</text>
<rect x="24" y="628" width="490" height="184" rx="10" fill="#f8fafc" stroke="#e2e8f0" stroke-width="1"/>
<rect x="24" y="628" width="6" height="184" rx="3" fill="#059669"/>
<text x="42" y="653" font-size="16" font-weight="bold" fill="#059669">Part IV</text>
<text x="128" y="653" font-size="13" fill="#475569">NPUWorker 与 NPUModelRunner</text>
<text x="44" y="685" font-size="12.5" font-weight="bold" fill="#059669">ch14</text>
<text x="86" y="685" font-size="12.5" fill="#1e293b">NPUWorker 重写</text>
<text x="44" y="711" font-size="12.5" font-weight="bold" fill="#059669">ch15</text>
<text x="86" y="711" font-size="12.5" fill="#1e293b">NPUModelRunner 继承+猴补</text>
<text x="44" y="737" font-size="12.5" font-weight="bold" fill="#059669">ch16</text>
<text x="86" y="737" font-size="12.5" fill="#1e293b">单步前向 execute_model</text>
<text x="44" y="763" font-size="12.5" font-weight="bold" fill="#059669">ch17</text>
<text x="86" y="763" font-size="12.5" fill="#1e293b">KV cache 落地：分配/绑定</text>
<text x="44" y="789" font-size="12.5" font-weight="bold" fill="#059669">ch18</text>
<text x="86" y="789" font-size="12.5" fill="#1e293b">310P 推理芯片特化</text>
<rect x="544" y="80" width="490" height="262" rx="10" fill="#f8fafc" stroke="#e2e8f0" stroke-width="1"/>
<rect x="544" y="80" width="6" height="262" rx="3" fill="#d97706"/>
<text x="562" y="105" font-size="16" font-weight="bold" fill="#d97706">Part V</text>
<text x="648" y="105" font-size="13" fill="#475569">NPU 后端特化</text>
<text x="564" y="137" font-size="12.5" font-weight="bold" fill="#d97706">ch19</text>
<text x="606" y="137" font-size="12.5" fill="#1e293b">注意力后端选择</text>
<text x="564" y="163" font-size="12.5" font-weight="bold" fill="#d97706">ch20</text>
<text x="606" y="163" font-size="12.5" fill="#1e293b">AscendAttention 标准 MHA</text>
<rect x="558" y="174" width="462" height="21" rx="5" fill="#fffbeb" stroke="#f59e0b" stroke-width="1.3" stroke-dasharray="3,2"/>
<text x="564" y="189" font-size="12.5" font-weight="bold" fill="#b45309">ch21</text>
<text x="606" y="189" font-size="12.5" fill="#b45309">MLA：低秩压缩/解耦 RoPE</text>
<rect x="986" y="176" width="34" height="16" rx="8" fill="#f59e0b"/>
<text x="1003.0" y="188" text-anchor="middle" font-size="10" font-weight="bold" fill="white">原理</text>
<text x="564" y="215" font-size="12.5" font-weight="bold" fill="#d97706">ch22</text>
<text x="606" y="215" font-size="12.5" fill="#1e293b">MLA 在 NPU 上：权重吸收</text>
<rect x="558" y="226" width="462" height="21" rx="5" fill="#fffbeb" stroke="#f59e0b" stroke-width="1.3" stroke-dasharray="3,2"/>
<text x="564" y="241" font-size="12.5" font-weight="bold" fill="#b45309">ch23</text>
<text x="606" y="241" font-size="12.5" fill="#b45309">稀疏注意力谱系 NSA→DSA</text>
<rect x="986" y="228" width="34" height="16" rx="8" fill="#f59e0b"/>
<text x="1003.0" y="240" text-anchor="middle" font-size="10" font-weight="bold" fill="white">原理</text>
<text x="564" y="267" font-size="12.5" font-weight="bold" fill="#d97706">ch24</text>
<text x="606" y="267" font-size="12.5" fill="#1e293b">稀疏注意力 SFA/DSA</text>
<text x="564" y="293" font-size="12.5" font-weight="bold" fill="#d97706">ch25</text>
<text x="606" y="293" font-size="12.5" fill="#1e293b">KV 管理与调度器</text>
<rect x="558" y="304" width="462" height="21" rx="5" fill="#fffbeb" stroke="#f59e0b" stroke-width="1.3" stroke-dasharray="3,2"/>
<text x="564" y="319" font-size="12.5" font-weight="bold" fill="#b45309">ch26</text>
<text x="606" y="319" font-size="12.5" fill="#b45309">V4 CSA/HCA 压缩注意力</text>
<rect x="986" y="306" width="34" height="16" rx="8" fill="#f59e0b"/>
<text x="1003.0" y="318" text-anchor="middle" font-size="10" font-weight="bold" fill="white">原理</text>
<rect x="544" y="358" width="490" height="158" rx="10" fill="#f8fafc" stroke="#e2e8f0" stroke-width="1"/>
<rect x="544" y="358" width="6" height="158" rx="3" fill="#db2777"/>
<text x="562" y="383" font-size="16" font-weight="bold" fill="#db2777">Part VI</text>
<text x="648" y="383" font-size="13" fill="#475569">换头不换身</text>
<text x="564" y="415" font-size="12.5" font-weight="bold" fill="#db2777">ch27</text>
<text x="606" y="415" font-size="12.5" fill="#1e293b">CustomOp OOT 顶替</text>
<text x="564" y="441" font-size="12.5" font-weight="bold" fill="#db2777">ch28</text>
<text x="606" y="441" font-size="12.5" fill="#1e293b">torch.library 与 meta 注册</text>
<text x="564" y="467" font-size="12.5" font-weight="bold" fill="#db2777">ch29</text>
<text x="606" y="467" font-size="12.5" fill="#1e293b">AscendCompiler / ACLGraph</text>
<text x="564" y="493" font-size="12.5" font-weight="bold" fill="#db2777">ch30</text>
<text x="606" y="493" font-size="12.5" fill="#1e293b">FusedMoE / batch-invariant</text>
<rect x="544" y="532" width="490" height="210" rx="10" fill="#f8fafc" stroke="#e2e8f0" stroke-width="1"/>
<rect x="544" y="532" width="6" height="210" rx="3" fill="#4f46e5"/>
<text x="562" y="557" font-size="16" font-weight="bold" fill="#4f46e5">Part VII</text>
<text x="648" y="557" font-size="13" fill="#475569">扩展点的注册范式</text>
<rect x="558" y="574" width="462" height="21" rx="5" fill="#fffbeb" stroke="#f59e0b" stroke-width="1.3" stroke-dasharray="3,2"/>
<text x="564" y="589" font-size="12.5" font-weight="bold" fill="#b45309">ch31</text>
<text x="606" y="589" font-size="12.5" fill="#b45309">量化数学：scale/GPTQ/AWQ</text>
<rect x="986" y="576" width="34" height="16" rx="8" fill="#f59e0b"/>
<text x="1003.0" y="588" text-anchor="middle" font-size="10" font-weight="bold" fill="white">原理</text>
<text x="564" y="615" font-size="12.5" font-weight="bold" fill="#4f46e5">ch32</text>
<text x="606" y="615" font-size="12.5" fill="#1e293b">昇腾量化框架</text>
<text x="564" y="641" font-size="12.5" font-weight="bold" fill="#4f46e5">ch33</text>
<text x="606" y="641" font-size="12.5" fill="#1e293b">采样的 NPU 对位</text>
<rect x="558" y="652" width="462" height="21" rx="5" fill="#fffbeb" stroke="#f59e0b" stroke-width="1.3" stroke-dasharray="3,2"/>
<text x="564" y="667" font-size="12.5" font-weight="bold" fill="#b45309">ch34</text>
<text x="606" y="667" font-size="12.5" fill="#b45309">投机采样：拒绝采样定理</text>
<rect x="986" y="654" width="34" height="16" rx="8" fill="#f59e0b"/>
<text x="1003.0" y="666" text-anchor="middle" font-size="10" font-weight="bold" fill="white">原理</text>
<text x="564" y="693" font-size="12.5" font-weight="bold" fill="#4f46e5">ch35</text>
<text x="606" y="693" font-size="12.5" fill="#1e293b">投机解码 proposer 工厂</text>
<text x="564" y="719" font-size="12.5" font-weight="bold" fill="#4f46e5">ch36</text>
<text x="606" y="719" font-size="12.5" fill="#1e293b">模型/LoRA/netloader 注册</text>
<rect x="24" y="844" width="30" height="16" rx="4" fill="#fffbeb" stroke="#f59e0b" stroke-width="1.3" stroke-dasharray="3,2"/>
<text x="62" y="857" font-size="12.5" fill="#475569">= 原理篇（primer；前置数学/算法根基，回指后续落地章）——共 6 章：ch09 / ch21 / ch23 / ch26 / ch31 / ch34</text>
</svg>