<svg xmlns="http://www.w3.org/2000/svg" viewBox="0 0 1468 984">
<defs><marker id="mEntry" viewBox="0 0 10 6" refX="9" refY="3" markerWidth="7" markerHeight="5" orient="auto"><path d="M0,0 L10,3 L0,6 Z" fill="#22c55e"/></marker><marker id="mExit" viewBox="0 0 10 6" refX="9" refY="3" markerWidth="7" markerHeight="5" orient="auto"><path d="M0,0 L10,3 L0,6 Z" fill="#f97316"/></marker><marker id="mMain" viewBox="0 0 10 6" refX="9" refY="3" markerWidth="7" markerHeight="5" orient="auto"><path d="M0,0 L10,3 L0,6 Z" fill="#3b82f6"/></marker></defs>
<rect width="1468" height="984" fill="white"/>
<text x="734.0" y="32" text-anchor="middle" font-family="sans-serif" font-size="15" font-weight="bold" fill="#0f172a">第 20 章 · AscendAttentionBackendImpl 源码剖面(五态机 + 双算子路径 + § 讲解站牌)</text>
<rect x="104" y="51" width="14" height="14" rx="3" fill="#22c55e"/>
<text x="124" y="62" font-family="sans-serif" font-size="11.5" fill="#0f172a">入口:从上层调用进入</text>
<rect x="268.17" y="51" width="14" height="14" rx="3" fill="#3b82f6"/>
<text x="288.17" y="62" font-family="sans-serif" font-size="11.5" fill="#0f172a">章内主线调用边</text>
<rect x="402.67" y="51" width="14" height="14" rx="3" fill="#f97316"/>
<text x="422.67" y="62" font-family="sans-serif" font-size="11.5" fill="#0f172a">出口:返回上层</text>
<rect x="0" y="74.0" width="1468" height="138.0" fill="#f8fafc"/>
<text x="16" y="92.0" font-family="sans-serif" font-size="13" font-weight="bold" fill="#334155">选型 / 状态定义</text>
<rect x="0" y="212.0" width="1468" height="250.0" fill="#eef2ff"/>
<text x="16" y="230.0" font-family="sans-serif" font-size="13" font-weight="bold" fill="#334155">元数据装配</text>
<line x1="0" y1="212.0" x2="1468" y2="212.0" stroke="#e2e8f0" stroke-width="1"/>
<rect x="0" y="462.0" width="1468" height="138.0" fill="#f8fafc"/>
<text x="16" y="480.0" font-family="sans-serif" font-size="13" font-weight="bold" fill="#334155">前向执行</text>
<line x1="0" y1="462.0" x2="1468" y2="462.0" stroke="#e2e8f0" stroke-width="1"/>
<rect x="0" y="600.0" width="1468" height="250.0" fill="#eef2ff"/>
<text x="16" y="618.0" font-family="sans-serif" font-size="13" font-weight="bold" fill="#334155">NPU 算子</text>
<line x1="0" y1="600.0" x2="1468" y2="600.0" stroke="#e2e8f0" stroke-width="1"/>
<line x1="0" y1="850.0" x2="1468" y2="850.0" stroke="#e2e8f0" stroke-width="1"/>
<rect x="12" y="142.0" width="60" height="26" rx="13.0" fill="#dcfce7" stroke="#22c55e" stroke-width="1.3"/>
<text x="42.0" y="159.0" text-anchor="middle" font-family="sans-serif" font-size="11" font-weight="bold" fill="#166534">调用方</text>
<line x1="72" y1="155.0" x2="104.0" y2="155.0" stroke="#22c55e" stroke-width="2" marker-end="url(#mEntry)"/>
<rect x="1396.0" y="530.0" width="60" height="26" rx="13.0" fill="#ffedd5" stroke="#f97316" stroke-width="1.3"/>
<text x="1426.0" y="547.0" text-anchor="middle" font-family="sans-serif" font-size="11" font-weight="bold" fill="#9a3412">返回上层</text>
<line x1="1364.0" y1="543.0" x2="1396.0" y2="543.0" stroke="#f97316" stroke-width="2" marker-end="url(#mExit)"/>
<line x1="289.0" y1="155.0" x2="319.0" y2="293.0" stroke="#3b82f6" stroke-width="2" marker-end="url(#mMain)"/>
<line x1="504.0" y1="293.0" x2="534.0" y2="543.0" stroke="#3b82f6" stroke-width="2" marker-end="url(#mMain)"/>
<line x1="719.0" y1="543.0" x2="749.0" y2="543.0" stroke="#3b82f6" stroke-width="2" marker-end="url(#mMain)"/>
<line x1="934.0" y1="543.0" x2="964.0" y2="681.0" stroke="#3b82f6" stroke-width="2" marker-end="url(#mMain)"/>
<line x1="934.0" y1="543.0" x2="964.0" y2="793.0" stroke="#3b82f6" stroke-width="2" marker-end="url(#mMain)"/>
<line x1="1149.0" y1="681.0" x2="1179.0" y2="535.0" stroke="#3b82f6" stroke-width="2" marker-end="url(#mMain)"/>
<line x1="1149.0" y1="793.0" x2="1179.0" y2="551.0" stroke="#3b82f6" stroke-width="2" marker-end="url(#mMain)"/>
<rect x="104.0" y="110.0" width="185" height="90" rx="12" fill="#ffffff" stroke="#475569" stroke-width="1.5"/>
<text x="196.5" y="144.0" text-anchor="middle" font-family="sans-serif" font-size="12.5" font-weight="bold" fill="#0f172a">get_impl_cls()</text>
<text x="196.5" y="181.0" text-anchor="middle" font-family="sans-serif" font-size="10.5" fill="#64748b">按 enable_cp() 选 Impl 类</text>
<rect x="251.0" y="100.0" width="46" height="20" rx="10.0" fill="#eef2ff" stroke="#6366f1" stroke-width="1.2"/>
<text x="274.0" y="114.0" text-anchor="middle" font-family="sans-serif" font-size="11" font-weight="bold" fill="#4338ca">§20.1</text>
<rect x="319.0" y="110.0" width="185" height="90" rx="12" fill="#ffffff" stroke="#475569" stroke-width="1.5"/>
<text x="411.5" y="134.0" text-anchor="middle" font-family="sans-serif" font-size="12.5" font-weight="bold" fill="#0f172a">Ascend</text>
<text x="411.5" y="150.0" text-anchor="middle" font-family="sans-serif" font-size="12.5" font-weight="bold" fill="#0f172a">AttentionState</text>
<text x="411.5" y="181.0" text-anchor="middle" font-family="sans-serif" font-size="10.5" fill="#64748b">五态决定 KV 来源+算子路径</text>
<rect x="466.0" y="100.0" width="46" height="20" rx="10.0" fill="#eef2ff" stroke="#6366f1" stroke-width="1.2"/>
<text x="489.0" y="114.0" text-anchor="middle" font-family="sans-serif" font-size="11" font-weight="bold" fill="#4338ca">§20.2</text>
<rect x="319.0" y="248.0" width="185" height="90" rx="12" fill="#ffffff" stroke="#475569" stroke-width="1.5"/>
<text x="411.5" y="282.0" text-anchor="middle" font-family="sans-serif" font-size="12.5" font-weight="bold" fill="#0f172a">Builder.build</text>
<text x="411.5" y="319.0" text-anchor="middle" font-family="sans-serif" font-size="10.5" fill="#64748b">拆批+取 KV 索引+装 mask</text>
<rect x="466.0" y="238.0" width="46" height="20" rx="10.0" fill="#eef2ff" stroke="#6366f1" stroke-width="1.2"/>
<text x="489.0" y="252.0" text-anchor="middle" font-family="sans-serif" font-size="11" font-weight="bold" fill="#4338ca">§20.3</text>
<rect x="319.0" y="360.0" width="185" height="90" rx="12" fill="#ffffff" stroke="#475569" stroke-width="1.5"/>
<text x="411.5" y="384.0" text-anchor="middle" font-family="sans-serif" font-size="12.5" font-weight="bold" fill="#0f172a">split_decodes_</text>
<text x="411.5" y="400.0" text-anchor="middle" font-family="sans-serif" font-size="12.5" font-weight="bold" fill="#0f172a">and_prefills</text>
<text x="411.5" y="426.0" text-anchor="middle" font-family="sans-serif" font-size="10.5" fill="#64748b">重排 batch 找</text>
<text x="411.5" y="440.0" text-anchor="middle" font-family="sans-serif" font-size="10.5" fill="#64748b">decode/prefill 分界</text>
<rect x="466.0" y="350.0" width="46" height="20" rx="10.0" fill="#eef2ff" stroke="#6366f1" stroke-width="1.2"/>
<text x="489.0" y="364.0" text-anchor="middle" font-family="sans-serif" font-size="11" font-weight="bold" fill="#4338ca">§20.3</text>
<rect x="534.0" y="498.0" width="185" height="90" rx="12" fill="#ffffff" stroke="#475569" stroke-width="1.5"/>
<text x="626.5" y="532.0" text-anchor="middle" font-family="sans-serif" font-size="12.5" font-weight="bold" fill="#0f172a">reshape_and_cache</text>
<text x="626.5" y="564.0" text-anchor="middle" font-family="sans-serif" font-size="10.5" fill="#64748b">按 slot_mapping</text>
<text x="626.5" y="578.0" text-anchor="middle" font-family="sans-serif" font-size="10.5" fill="#64748b">写 KV 到 cache</text>
<rect x="681.0" y="488.0" width="46" height="20" rx="10.0" fill="#eef2ff" stroke="#6366f1" stroke-width="1.2"/>
<text x="704.0" y="502.0" text-anchor="middle" font-family="sans-serif" font-size="11" font-weight="bold" fill="#4338ca">§20.4</text>
<rect x="749.0" y="498.0" width="185" height="90" rx="12" fill="#ffffff" stroke="#475569" stroke-width="1.5"/>
<text x="841.5" y="532.0" text-anchor="middle" font-family="sans-serif" font-size="12.5" font-weight="bold" fill="#0f172a">forward_impl</text>
<text x="841.5" y="569.0" text-anchor="middle" font-family="sans-serif" font-size="10.5" fill="#64748b">按五态分流→两条算子路径</text>
<rect x="896.0" y="488.0" width="46" height="20" rx="10.0" fill="#eef2ff" stroke="#6366f1" stroke-width="1.2"/>
<text x="919.0" y="502.0" text-anchor="middle" font-family="sans-serif" font-size="11" font-weight="bold" fill="#4338ca">§20.5</text>
<rect x="964.0" y="636.0" width="185" height="90" rx="12" fill="#ffffff" stroke="#475569" stroke-width="1.5"/>
<text x="1056.5" y="660.0" text-anchor="middle" font-family="sans-serif" font-size="12.5" font-weight="bold" fill="#0f172a">forward_paged_</text>
<text x="1056.5" y="676.0" text-anchor="middle" font-family="sans-serif" font-size="12.5" font-weight="bold" fill="#0f172a">attention</text>
<text x="1056.5" y="707.0" text-anchor="middle" font-family="sans-serif" font-size="10.5" fill="#64748b">纯 decode 快车道</text>
<rect x="1111.0" y="626.0" width="46" height="20" rx="10.0" fill="#eef2ff" stroke="#6366f1" stroke-width="1.2"/>
<text x="1134.0" y="640.0" text-anchor="middle" font-family="sans-serif" font-size="11" font-weight="bold" fill="#4338ca">§20.6</text>
<rect x="964.0" y="748.0" width="185" height="90" rx="12" fill="#ffffff" stroke="#475569" stroke-width="1.5"/>
<text x="1056.5" y="772.0" text-anchor="middle" font-family="sans-serif" font-size="12.5" font-weight="bold" fill="#0f172a">forward_fused_</text>
<text x="1056.5" y="788.0" text-anchor="middle" font-family="sans-serif" font-size="12.5" font-weight="bold" fill="#0f172a">infer_attention</text>
<text x="1056.5" y="819.0" text-anchor="middle" font-family="sans-serif" font-size="10.5" fill="#64748b">四态走 fused-infer</text>
<rect x="1111.0" y="738.0" width="46" height="20" rx="10.0" fill="#eef2ff" stroke="#6366f1" stroke-width="1.2"/>
<text x="1134.0" y="752.0" text-anchor="middle" font-family="sans-serif" font-size="11" font-weight="bold" fill="#4338ca">§20.6</text>
<rect x="1179.0" y="498.0" width="185" height="90" rx="12" fill="#ffffff" stroke="#475569" stroke-width="1.5"/>
<text x="1271.5" y="522.0" text-anchor="middle" font-family="sans-serif" font-size="12.5" font-weight="bold" fill="#0f172a">flash_attn_</text>
<text x="1271.5" y="538.0" text-anchor="middle" font-family="sans-serif" font-size="12.5" font-weight="bold" fill="#0f172a">varlen_func</text>
<text x="1271.5" y="564.0" text-anchor="middle" font-family="sans-serif" font-size="10.5" fill="#64748b">对照基座:NPU 换核全景+</text>
<text x="1271.5" y="578.0" text-anchor="middle" font-family="sans-serif" font-size="10.5" fill="#64748b">workspace 预取</text>
<rect x="1326.0" y="488.0" width="46" height="20" rx="10.0" fill="#eef2ff" stroke="#6366f1" stroke-width="1.2"/>
<text x="1349.0" y="502.0" text-anchor="middle" font-family="sans-serif" font-size="11" font-weight="bold" fill="#4338ca">§20.7</text>
<rect x="1179.0" y="748.0" width="185" height="90" rx="12" fill="#ffffff" stroke="#475569" stroke-width="1.5"/>
<text x="1271.5" y="772.0" text-anchor="middle" font-family="sans-serif" font-size="12.5" font-weight="bold" fill="#0f172a">AscendC8Attention</text>
<text x="1271.5" y="788.0" text-anchor="middle" font-family="sans-serif" font-size="12.5" font-weight="bold" fill="#0f172a">BackendImpl</text>
<text x="1271.5" y="814.0" text-anchor="middle" font-family="sans-serif" font-size="10.5" fill="#64748b">INT8 KV 量化子类(</text>
<text x="1271.5" y="828.0" text-anchor="middle" font-family="sans-serif" font-size="10.5" fill="#64748b">选讲,不在主路径)</text>
<rect x="1326.0" y="738.0" width="46" height="20" rx="10.0" fill="#eef2ff" stroke="#6366f1" stroke-width="1.2"/>
<text x="1349.0" y="752.0" text-anchor="middle" font-family="sans-serif" font-size="11" font-weight="bold" fill="#4338ca">§20.8</text>
<text x="16" y="873.0" font-family="sans-serif" font-size="12.5" font-weight="bold" fill="#334155">阅读路线(标号=图上 § 站牌;实线蓝=推荐 / 虚线灰=次要)</text>
<text x="16" y="906.0" font-family="sans-serif" font-size="12" fill="#0f172a">通读主线(20.1→20.7)</text>
<line x1="196.5" y1="902.0" x2="1271.5" y2="902.0" stroke="#3b82f6" stroke-width="3"/>
<rect x="173.5" y="892.0" width="46" height="20" rx="10.0" fill="#eef2ff" stroke="#6366f1" stroke-width="1.2"/>
<text x="196.5" y="906.0" text-anchor="middle" font-family="sans-serif" font-size="11" font-weight="bold" fill="#4338ca">§20.1</text>
<rect x="388.5" y="892.0" width="46" height="20" rx="10.0" fill="#eef2ff" stroke="#6366f1" stroke-width="1.2"/>
<text x="411.5" y="906.0" text-anchor="middle" font-family="sans-serif" font-size="11" font-weight="bold" fill="#4338ca">§20.3</text>
<rect x="603.5" y="892.0" width="46" height="20" rx="10.0" fill="#eef2ff" stroke="#6366f1" stroke-width="1.2"/>
<text x="626.5" y="906.0" text-anchor="middle" font-family="sans-serif" font-size="11" font-weight="bold" fill="#4338ca">§20.4</text>
<rect x="818.5" y="892.0" width="46" height="20" rx="10.0" fill="#eef2ff" stroke="#6366f1" stroke-width="1.2"/>
<text x="841.5" y="906.0" text-anchor="middle" font-family="sans-serif" font-size="11" font-weight="bold" fill="#4338ca">§20.5</text>
<rect x="1033.5" y="892.0" width="46" height="20" rx="10.0" fill="#eef2ff" stroke="#6366f1" stroke-width="1.2"/>
<text x="1056.5" y="906.0" text-anchor="middle" font-family="sans-serif" font-size="11" font-weight="bold" fill="#4338ca">§20.6</text>
<rect x="1248.5" y="892.0" width="46" height="20" rx="10.0" fill="#eef2ff" stroke="#6366f1" stroke-width="1.2"/>
<text x="1271.5" y="906.0" text-anchor="middle" font-family="sans-serif" font-size="11" font-weight="bold" fill="#4338ca">§20.7</text>
<text x="16" y="950.0" font-family="sans-serif" font-size="12" fill="#0f172a">跳读:先摸清五态+两条算子路径</text>
<line x1="411.5" y1="946.0" x2="1056.5" y2="946.0" stroke="#94a3b8" stroke-width="1.5" stroke-dasharray="6,4"/>
<rect x="388.5" y="936.0" width="46" height="20" rx="10.0" fill="#eef2ff" stroke="#6366f1" stroke-width="1.2"/>
<text x="411.5" y="950.0" text-anchor="middle" font-family="sans-serif" font-size="11" font-weight="bold" fill="#4338ca">§20.2</text>
<rect x="818.5" y="936.0" width="46" height="20" rx="10.0" fill="#eef2ff" stroke="#6366f1" stroke-width="1.2"/>
<text x="841.5" y="950.0" text-anchor="middle" font-family="sans-serif" font-size="11" font-weight="bold" fill="#4338ca">§20.5</text>
<rect x="1033.5" y="936.0" width="46" height="20" rx="10.0" fill="#eef2ff" stroke="#6366f1" stroke-width="1.2"/>
<text x="1056.5" y="950.0" text-anchor="middle" font-family="sans-serif" font-size="11" font-weight="bold" fill="#4338ca">§20.6</text>
</svg>