<svg xmlns="http://www.w3.org/2000/svg" viewBox="0 0 700 280">
<defs><marker id="a" viewBox="0 0 10 6" refX="9" refY="3" markerWidth="7" markerHeight="5" orient="auto"><path d="M0,0 L10,3 L0,6 Z" fill="#1e3a5f"/></marker></defs>
<rect x="0" y="0" width="700" height="280" fill="white"/>
<rect x="40" y="50" width="200" height="45" rx="4" fill="#3b82f6" stroke="#1e3a5f" stroke-width="2"/>
<text x="140.0" y="77.5" text-anchor="middle" font-family="monospace" font-size="13" fill="white">Q₀ [4×d]  tokens 0-3</text>
<rect x="40" y="120" width="200" height="45" rx="4" fill="#60a5fa" stroke="#1e3a5f" stroke-width="2"/>
<text x="140.0" y="147.5" text-anchor="middle" font-family="monospace" font-size="13" fill="white">Q₁ [4×d]  tokens 4-7</text>
<rect x="40" y="190" width="200" height="45" rx="4" fill="#93c5fd" stroke="#1e3a5f" stroke-width="2"/>
<text x="140.0" y="217.5" text-anchor="middle" font-family="monospace" font-size="13" fill="white">Q₂ [4×d]  tokens 8-11</text>
<text x="40" y="35" font-family="monospace" font-size="14" fill="#1e40af" font-weight="bold">Q [12×d] — 3 tiles</text>
<rect x="35" y="40" width="210" height="195" rx="6" fill="none" stroke="#93c5fd" stroke-width="1.5" stroke-dasharray="6,3"/>
<rect x="380" y="50" width="260" height="45" rx="4" fill="#fef3c7" stroke="#b45309" stroke-width="2"/>
<text x="510.0" y="77.5" text-anchor="middle" font-family="monospace" font-size="13" fill="#92400e">K₀^T + V₀  [d×4]</text>
<rect x="380" y="120" width="260" height="45" rx="4" fill="#fef3c7" stroke="#b45309" stroke-width="2"/>
<text x="510.0" y="147.5" text-anchor="middle" font-family="monospace" font-size="13" fill="#92400e">K₁^T + V₁  [d×4]</text>
<rect x="380" y="190" width="260" height="45" rx="4" fill="#fef3c7" stroke="#b45309" stroke-width="2"/>
<text x="510.0" y="217.5" text-anchor="middle" font-family="monospace" font-size="13" fill="#92400e">K₂^T + V₂  [d×4]</text>
<text x="380" y="35" font-family="monospace" font-size="14" fill="#b45309" font-weight="bold">K^T+V [d×12] — 3 tiles</text>
<rect x="375" y="40" width="270" height="195" rx="6" fill="none" stroke="#fbbf24" stroke-width="1.5" stroke-dasharray="6,3"/>
<line x1="240" y1="68.5" x2="380" y2="68.5" stroke="#2563eb" stroke-width="1.5" marker-end="url(#a)" opacity="0.5"/>
<line x1="240" y1="72.5" x2="380" y2="142.5" stroke="#2563eb" stroke-width="1.5" marker-end="url(#a)" opacity="0.5"/>
<line x1="240" y1="76.5" x2="380" y2="216.5" stroke="#2563eb" stroke-width="1.5" marker-end="url(#a)" opacity="0.5"/>
<line x1="240" y1="138.5" x2="380" y2="68.5" stroke="#7c3aed" stroke-width="1.5" marker-end="url(#a)" opacity="0.5"/>
<line x1="240" y1="142.5" x2="380" y2="142.5" stroke="#7c3aed" stroke-width="1.5" marker-end="url(#a)" opacity="0.5"/>
<line x1="240" y1="146.5" x2="380" y2="216.5" stroke="#7c3aed" stroke-width="1.5" marker-end="url(#a)" opacity="0.5"/>
<line x1="240" y1="208.5" x2="380" y2="68.5" stroke="#059669" stroke-width="1.5" marker-end="url(#a)" opacity="0.5"/>
<line x1="240" y1="212.5" x2="380" y2="142.5" stroke="#059669" stroke-width="1.5" marker-end="url(#a)" opacity="0.5"/>
<line x1="240" y1="216.5" x2="380" y2="216.5" stroke="#059669" stroke-width="1.5" marker-end="url(#a)" opacity="0.5"/>
<text x="350.0" y="265" text-anchor="middle" font-family="monospace" font-size="12" fill="#64748b">Each Q tile loads ONCE. KV tiles re-read L/BLOCK=3 times. Cost of avoiding O(L²) HBM writes.</text>
</svg>