<svg xmlns="http://www.w3.org/2000/svg" viewBox="0 0 1100 460">
<defs><marker id="a" viewBox="0 0 10 6" refX="9" refY="3" markerWidth="7" markerHeight="5" orient="auto"><path d="M0,0 L10,3 L0,6 Z" fill="#64748b"/></marker></defs>
<rect width="1100" height="460" fill="white"/>
<text x="40" y="32" font-family="sans-serif" font-size="17" font-weight="bold" fill="#0f172a">合并访存 (coalescing)：同一个 warp 的 32 次访存，连续对齐 vs 跨步 gather</text>
<text x="40" y="56" font-family="sans-serif" font-size="12.5" fill="#475569">代码差别只是 offsets 连不连续——硬件按 128 字节对齐段归并事务，段数越多有效带宽越低</text>
<text x="280.0" y="104" text-anchor="middle" font-family="sans-serif" font-size="15" font-weight="bold" fill="#0f172a">连续对齐 —— vector-add 的 offsets</text>
<rect x="41.0" y="118" width="28.0" height="30" rx="2" fill="#dcfce7" stroke="#16a34a" stroke-width="1.3"/>
<rect x="71.0" y="118" width="28.0" height="30" rx="2" fill="#dcfce7" stroke="#16a34a" stroke-width="1.3"/>
<rect x="101.0" y="118" width="28.0" height="30" rx="2" fill="#dcfce7" stroke="#16a34a" stroke-width="1.3"/>
<rect x="131.0" y="118" width="28.0" height="30" rx="2" fill="#dcfce7" stroke="#16a34a" stroke-width="1.3"/>
<rect x="161.0" y="118" width="28.0" height="30" rx="2" fill="#dcfce7" stroke="#16a34a" stroke-width="1.3"/>
<rect x="191.0" y="118" width="28.0" height="30" rx="2" fill="#dcfce7" stroke="#16a34a" stroke-width="1.3"/>
<rect x="221.0" y="118" width="28.0" height="30" rx="2" fill="#dcfce7" stroke="#16a34a" stroke-width="1.3"/>
<rect x="251.0" y="118" width="28.0" height="30" rx="2" fill="#dcfce7" stroke="#16a34a" stroke-width="1.3"/>
<rect x="281.0" y="118" width="28.0" height="30" rx="2" fill="#dcfce7" stroke="#16a34a" stroke-width="1.3"/>
<rect x="311.0" y="118" width="28.0" height="30" rx="2" fill="#dcfce7" stroke="#16a34a" stroke-width="1.3"/>
<rect x="341.0" y="118" width="28.0" height="30" rx="2" fill="#dcfce7" stroke="#16a34a" stroke-width="1.3"/>
<rect x="371.0" y="118" width="28.0" height="30" rx="2" fill="#dcfce7" stroke="#16a34a" stroke-width="1.3"/>
<rect x="401.0" y="118" width="28.0" height="30" rx="2" fill="#dcfce7" stroke="#16a34a" stroke-width="1.3"/>
<rect x="431.0" y="118" width="28.0" height="30" rx="2" fill="#dcfce7" stroke="#16a34a" stroke-width="1.3"/>
<rect x="461.0" y="118" width="28.0" height="30" rx="2" fill="#dcfce7" stroke="#16a34a" stroke-width="1.3"/>
<rect x="491.0" y="118" width="28.0" height="30" rx="2" fill="#dcfce7" stroke="#16a34a" stroke-width="1.3"/>
<text x="280.0" y="164" text-anchor="middle" font-family="sans-serif" font-size="11" fill="#334155">warp 的 32 lane（示意前 16 个）：lane i 地址 = i × 4B（i=0..31，连续排列）</text>
<line x1="280.0" y1="172" x2="280.0" y2="200" stroke="#16a34a" stroke-width="2" marker-end="url(#a)"/>
<rect x="180.0" y="206" width="200" height="66" rx="8" fill="#16a34a" stroke="#14532d" stroke-width="1.5"/>
<text x="280.0" y="233.0" text-anchor="middle" font-family="sans-serif" font-size="15" font-weight="bold" fill="white">1 次事务</text>
<text x="280.0" y="255.0" text-anchor="middle" font-family="sans-serif" font-size="11.5" fill="white">128 字节，全部有用</text>
<rect x="40" y="296" width="480" height="64" rx="8" fill="#dcfce7" stroke="#16a34a" stroke-width="1.6"/>
<text x="56" y="322" font-family="sans-serif" font-size="12" fill="#334155">warp 触及字节地址范围：0 .. 124</text>
<text x="56" y="344" font-family="sans-serif" font-size="16" font-weight="bold" fill="#16a34a">有效带宽 = 满带宽（基准 1×）</text>
<text x="820.0" y="104" text-anchor="middle" font-family="sans-serif" font-size="15" font-weight="bold" fill="#0f172a">跨步 gather —— stride=32</text>
<rect x="581.0" y="118" width="28.0" height="30" rx="2" fill="#fee2e2" stroke="#dc2626" stroke-width="1.3"/>
<rect x="611.0" y="118" width="28.0" height="30" rx="2" fill="#fee2e2" stroke="#f87171" stroke-width="1.3"/>
<rect x="641.0" y="118" width="28.0" height="30" rx="2" fill="#fee2e2" stroke="#dc2626" stroke-width="1.3"/>
<rect x="671.0" y="118" width="28.0" height="30" rx="2" fill="#fee2e2" stroke="#f87171" stroke-width="1.3"/>
<rect x="701.0" y="118" width="28.0" height="30" rx="2" fill="#fee2e2" stroke="#dc2626" stroke-width="1.3"/>
<rect x="731.0" y="118" width="28.0" height="30" rx="2" fill="#fee2e2" stroke="#f87171" stroke-width="1.3"/>
<rect x="761.0" y="118" width="28.0" height="30" rx="2" fill="#fee2e2" stroke="#dc2626" stroke-width="1.3"/>
<rect x="791.0" y="118" width="28.0" height="30" rx="2" fill="#fee2e2" stroke="#f87171" stroke-width="1.3"/>
<rect x="821.0" y="118" width="28.0" height="30" rx="2" fill="#fee2e2" stroke="#dc2626" stroke-width="1.3"/>
<rect x="851.0" y="118" width="28.0" height="30" rx="2" fill="#fee2e2" stroke="#f87171" stroke-width="1.3"/>
<rect x="881.0" y="118" width="28.0" height="30" rx="2" fill="#fee2e2" stroke="#dc2626" stroke-width="1.3"/>
<rect x="911.0" y="118" width="28.0" height="30" rx="2" fill="#fee2e2" stroke="#f87171" stroke-width="1.3"/>
<rect x="941.0" y="118" width="28.0" height="30" rx="2" fill="#fee2e2" stroke="#dc2626" stroke-width="1.3"/>
<rect x="971.0" y="118" width="28.0" height="30" rx="2" fill="#fee2e2" stroke="#f87171" stroke-width="1.3"/>
<rect x="1001.0" y="118" width="28.0" height="30" rx="2" fill="#fee2e2" stroke="#dc2626" stroke-width="1.3"/>
<rect x="1031.0" y="118" width="28.0" height="30" rx="2" fill="#fee2e2" stroke="#f87171" stroke-width="1.3"/>
<text x="820.0" y="164" text-anchor="middle" font-family="sans-serif" font-size="11" fill="#334155">warp 的 32 lane（示意前 16 个）：lane i 地址 = i × 32 × 4B（i=0..31，跨段散落）</text>
<line x1="820.0" y1="172" x2="820.0" y2="200" stroke="#dc2626" stroke-width="2" marker-end="url(#a)"/>
<rect x="639.0" y="206" width="40" height="46" rx="5" fill="#dc2626" stroke="#7f1d1d" stroke-width="1.3"/>
<rect x="685.0" y="206" width="40" height="46" rx="5" fill="#dc2626" stroke="#7f1d1d" stroke-width="1.3"/>
<rect x="731.0" y="206" width="40" height="46" rx="5" fill="#dc2626" stroke="#7f1d1d" stroke-width="1.3"/>
<rect x="777.0" y="206" width="40" height="46" rx="5" fill="#dc2626" stroke="#7f1d1d" stroke-width="1.3"/>
<rect x="823.0" y="206" width="40" height="46" rx="5" fill="#dc2626" stroke="#7f1d1d" stroke-width="1.3"/>
<rect x="869.0" y="206" width="40" height="46" rx="5" fill="#dc2626" stroke="#7f1d1d" stroke-width="1.3"/>
<rect x="915.0" y="206" width="40" height="46" rx="5" fill="#dc2626" stroke="#7f1d1d" stroke-width="1.3"/>
<rect x="961.0" y="206" width="40" height="46" rx="5" fill="#dc2626" stroke="#7f1d1d" stroke-width="1.3"/>
<text x="820.0" y="272" text-anchor="middle" font-family="sans-serif" font-size="15" font-weight="bold" fill="#dc2626">32 次事务（示意前 8 段 + ...）</text>
<text x="820.0" y="290" text-anchor="middle" font-family="sans-serif" font-size="11.5" fill="#7f1d1d">每次事务仅 128 (仅 4B 有用)</text>
<rect x="580" y="314" width="480" height="64" rx="8" fill="#fee2e2" stroke="#dc2626" stroke-width="1.6"/>
<text x="596" y="340" font-family="sans-serif" font-size="12" fill="#334155">warp 触及字节地址范围：0 .. 3968</text>
<text x="596" y="362" font-family="sans-serif" font-size="16" font-weight="bold" fill="#dc2626">有效带宽 = 1/32 带宽</text>
<text x="40" y="430" font-family="sans-serif" font-size="13" font-weight="bold" fill="#0f172a">warp lane 数 = 32；同样 32 次访存，事务数差 32 倍，带宽落差 32 倍——机器成因只有一条：地址是否落在同一 128 字节对齐段。</text>
</svg>