<svg xmlns="http://www.w3.org/2000/svg" viewBox="0 0 920 480"><defs><marker id="a" viewBox="0 0 10 6" refX="9" refY="3" markerWidth="7" markerHeight="5" orient="auto"><path d="M0,0 L10,3 L0,6 Z" fill="#64748b"/></marker><marker id="ar" viewBox="0 0 10 6" refX="9" refY="3" markerWidth="7" markerHeight="5" orient="auto"><path d="M0,0 L10,3 L0,6 Z" fill="#b91c1c"/></marker></defs><rect width="920" height="480" fill="white"/><text x="460" y="30" text-anchor="middle" font-size="19" font-family="sans-serif" font-weight="bold" fill="#0f172a">step  vs  step_with_batch_queue</text><text x="460" y="52" text-anchor="middle" font-size="12" font-family="sans-serif" font-weight="normal" fill="#64748b">填满流水线 优先于 取结果, 消除 PP 气泡</text><text x="70" y="102" text-anchor="start" font-size="13" font-family="sans-serif" font-weight="bold" fill="#475569">step (普通)</text><rect x="90" y="110" width="150" height="40" rx="8" fill="#f1f5f9" stroke="#94a3b8" stroke-width="2"/><text x="165" y="135" text-anchor="middle" font-size="12" font-family="sans-serif" font-weight="normal" fill="#334155">schedule</text><line x1="240" y1="130" x2="258" y2="130" stroke="#64748b" stroke-width="2" marker-end="url(#a)"/><rect x="260" y="110" width="150" height="40" rx="8" fill="#f1f5f9" stroke="#94a3b8" stroke-width="2"/><text x="335" y="135" text-anchor="middle" font-size="12" font-family="sans-serif" font-weight="normal" fill="#334155">exec</text><line x1="410" y1="130" x2="428" y2="130" stroke="#64748b" stroke-width="2" marker-end="url(#a)"/><rect x="430" y="110" width="150" height="40" rx="8" fill="#f1f5f9" stroke="#94a3b8" stroke-width="2"/><text x="505" y="135" text-anchor="middle" font-size="12" font-family="sans-serif" font-weight="normal" fill="#334155">sample</text><line x1="580" y1="130" x2="598" y2="130" stroke="#64748b" stroke-width="2" marker-end="url(#a)"/><rect x="600" y="110" width="150" height="40" rx="8" fill="#f1f5f9" stroke="#94a3b8" stroke-width="2"/><text x="675" y="135" text-anchor="middle" font-size="12" font-family="sans-serif" font-weight="normal" fill="#334155">update</text><text x="460" y="172" text-anchor="middle" font-size="11" font-family="sans-serif" font-weight="normal" fill="#64748b">一拍一批, 各 stage 串行 —— 单批走完才下一批</text><text x="70" y="232" text-anchor="start" font-size="13" font-family="sans-serif" font-weight="bold" fill="#1d4ed8">step_with_batch_queue</text><rect x="80" y="240" width="760" height="130" rx="12" fill="#eff6ff" stroke="#1d4ed8" stroke-width="2"/><text x="180" y="262" text-anchor="middle" font-size="12" font-family="sans-serif" font-weight="bold" fill="#1e3a8a">batch_queue (deque, 深度 N)</text><rect x="110" y="280" width="165" height="70" rx="8" fill="#dbeafe" stroke="#2563eb" stroke-width="2"/><text x="192" y="307" text-anchor="middle" font-size="13" font-family="sans-serif" font-weight="bold" fill="#2563eb">批 #3</text><text x="192" y="327" text-anchor="middle" font-size="10" font-family="sans-serif" font-weight="normal" fill="#2563eb">appendleft</text><text x="192" y="341" text-anchor="middle" font-size="10" font-family="sans-serif" font-weight="normal" fill="#2563eb">刚调度</text><line x1="275" y1="315" x2="298" y2="315" stroke="#64748b" stroke-width="2" marker-end="url(#a)"/><rect x="300" y="280" width="165" height="70" rx="8" fill="#fde68a" stroke="#d97706" stroke-width="2"/><text x="382" y="307" text-anchor="middle" font-size="13" font-family="sans-serif" font-weight="bold" fill="#d97706">批 #2</text><text x="382" y="327" text-anchor="middle" font-size="10" font-family="sans-serif" font-weight="normal" fill="#d97706">exec 中</text><line x1="465" y1="315" x2="488" y2="315" stroke="#64748b" stroke-width="2" marker-end="url(#a)"/><rect x="490" y="280" width="165" height="70" rx="8" fill="#bbf7d0" stroke="#16a34a" stroke-width="2"/><text x="572" y="307" text-anchor="middle" font-size="13" font-family="sans-serif" font-weight="bold" fill="#16a34a">批 #1</text><text x="572" y="327" text-anchor="middle" font-size="10" font-family="sans-serif" font-weight="normal" fill="#16a34a">pop</text><text x="572" y="341" text-anchor="middle" font-size="10" font-family="sans-serif" font-weight="normal" fill="#16a34a">取结果</text><rect x="675" y="280" width="150" height="70" rx="8" fill="#fee2e2" stroke="#dc2626" stroke-width="2"/><text x="750" y="305" text-anchor="middle" font-size="11" font-family="sans-serif" font-weight="bold" fill="#b91c1c">deferred</text><text x="750" y="323" text-anchor="middle" font-size="9.5" font-family="sans-serif" font-weight="normal" fill="#dc2626">投机解码+</text><text x="750" y="336" text-anchor="middle" font-size="9" font-family="sans-serif" font-weight="normal" fill="#dc2626">结构化输出 (第12章)</text><text x="460" y="392" text-anchor="middle" font-size="11.5" font-family="sans-serif" font-weight="bold" fill="#1d4ed8">队未满且队尾未完成 → return (None, True) 立刻去调度下一批</text></svg>