<svg xmlns="http://www.w3.org/2000/svg" viewBox="0 0 1498.0 694.0">
<defs><marker id="mEntry" viewBox="0 0 10 6" refX="9" refY="3" markerWidth="7" markerHeight="5" orient="auto"><path d="M0,0 L10,3 L0,6 Z" fill="#22c55e"/></marker><marker id="mExit" viewBox="0 0 10 6" refX="9" refY="3" markerWidth="7" markerHeight="5" orient="auto"><path d="M0,0 L10,3 L0,6 Z" fill="#f97316"/></marker><marker id="mMain" viewBox="0 0 10 6" refX="9" refY="3" markerWidth="7" markerHeight="5" orient="auto"><path d="M0,0 L10,3 L0,6 Z" fill="#3b82f6"/></marker></defs>
<rect width="1498.0" height="694.0" fill="white"/>
<text x="749.0" y="32" text-anchor="middle" font-family="sans-serif" font-size="15" font-weight="bold" fill="#0f172a">第 9 章 · 增量去 token 化与 stop string 剖面（源码走线 + § 讲解站牌）</text>
<rect x="112" y="49" width="14" height="14" rx="3" fill="#22c55e"/>
<text x="132" y="60" font-family="sans-serif" font-size="11.5" fill="#0f172a">入口：从上层构造/调用进入</text>
<rect x="310.67" y="49" width="14" height="14" rx="3" fill="#3b82f6"/>
<text x="330.67" y="60" font-family="sans-serif" font-size="11.5" fill="#0f172a">章内主线调用边</text>
<rect x="445.17" y="49" width="14" height="14" rx="3" fill="#f97316"/>
<text x="465.17" y="60" font-family="sans-serif" font-size="11.5" fill="#0f172a">出口：返回上层（回灌 EngineCore）</text>
<rect x="0" y="70.0" width="1498.0" height="184.0" fill="#f8fafc"/>
<text x="16" y="86.0" font-family="sans-serif" font-size="13" font-weight="bold" fill="#334155">构造期 · 三路分派 → 主循环入口(§9.1-§9.2)</text>
<line x1="0" y1="70.0" x2="1498.0" y2="70.0" stroke="#e2e8f0" stroke-width="1"/>
<line x1="0" y1="254.0" x2="1498.0" y2="254.0" stroke="#e2e8f0" stroke-width="1"/>
<rect x="0" y="384.0" width="1498.0" height="184.0" fill="#eef2ff"/>
<text x="16" y="400.0" font-family="sans-serif" font-size="13" font-weight="bold" fill="#334155">运行期 · 解码后端 → 查stop → 产出 → 收口(§9.3-§9.7)</text>
<line x1="0" y1="384.0" x2="1498.0" y2="384.0" stroke="#e2e8f0" stroke-width="1"/>
<line x1="0" y1="568.0" x2="1498.0" y2="568.0" stroke="#e2e8f0" stroke-width="1"/>
<rect x="16" y="121.0" width="72" height="26" rx="13.0" fill="#dcfce7" stroke="#22c55e" stroke-width="1.3"/>
<text x="52.0" y="138.0" text-anchor="middle" font-family="sans-serif" font-size="11" font-weight="bold" fill="#166534">调用方</text>
<line x1="88" y1="134.0" x2="112.0" y2="134.0" stroke="#22c55e" stroke-width="2" marker-end="url(#mEntry)"/>
<rect x="1410.0" y="435.0" width="72" height="26" rx="13.0" fill="#ffedd5" stroke="#f97316" stroke-width="1.3"/>
<text x="1446.0" y="452.0" text-anchor="middle" font-family="sans-serif" font-size="11" font-weight="bold" fill="#9a3412">返回上层</text>
<line x1="1386.0" y1="448.0" x2="1410.0" y2="448.0" stroke="#f97316" stroke-width="2" marker-end="url(#mExit)"/>
<line x1="405.0" y1="134.0" x2="439.0" y2="134.0" stroke="#3b82f6" stroke-width="2" marker-end="url(#mMain)"/>
<line x1="405.0" y1="134.0" x2="439.0" y2="212.0" stroke="#3b82f6" stroke-width="2" marker-end="url(#mMain)"/>
<line x1="732.0" y1="134.0" x2="766.0" y2="126.0" stroke="#3b82f6" stroke-width="2" marker-end="url(#mMain)"/>
<line x1="732.0" y1="212.0" x2="766.0" y2="142.0" stroke="#3b82f6" stroke-width="2" marker-end="url(#mMain)"/>
<line x1="912.5" y1="164.0" x2="258.5" y2="418.0" stroke="#3b82f6" stroke-width="2" marker-end="url(#mMain)"/>
<line x1="912.5" y1="164.0" x2="258.5" y2="496.0" stroke="#3b82f6" stroke-width="2" marker-end="url(#mMain)"/>
<line x1="405.0" y1="448.0" x2="439.0" y2="440.0" stroke="#3b82f6" stroke-width="2" marker-end="url(#mMain)"/>
<line x1="405.0" y1="526.0" x2="439.0" y2="456.0" stroke="#3b82f6" stroke-width="2" marker-end="url(#mMain)"/>
<line x1="732.0" y1="448.0" x2="766.0" y2="448.0" stroke="#3b82f6" stroke-width="2" marker-end="url(#mMain)"/>
<line x1="1059.0" y1="448.0" x2="1093.0" y2="448.0" stroke="#3b82f6" stroke-width="2" marker-end="url(#mMain)"/>
<text x="16" y="319.0" font-family="sans-serif" font-size="11.5" font-style="italic" fill="#475569">update 每步调 self.decode_next，按对象类型落到 Fast/Slow 实现</text>
<rect x="112.0" y="104.0" width="293.0" height="60" rx="12" fill="#ffffff" stroke="#475569" stroke-width="1.5"/>
<text x="258.5" y="129.2" text-anchor="middle" font-family="sans-serif" font-size="13" font-weight="bold" fill="#0f172a">from_new_request</text>
<text x="258.5" y="148.4" text-anchor="middle" font-family="sans-serif" font-size="10.5" fill="#64748b">按 tokenizer 类型/版本三路分派</text>
<rect x="367.0" y="94.0" width="46" height="20" rx="10.0" fill="#eef2ff" stroke="#6366f1" stroke-width="1.2"/>
<text x="390.0" y="108.0" text-anchor="middle" font-family="sans-serif" font-size="11" font-weight="bold" fill="#4338ca">§9.1</text>
<rect x="439.0" y="104.0" width="293.0" height="60" rx="12" fill="#ffffff" stroke="#475569" stroke-width="1.5"/>
<text x="585.5" y="129.2" text-anchor="middle" font-family="sans-serif" font-size="13" font-weight="bold" fill="#0f172a">FastIncrementalDetokenizer</text>
<text x="585.5" y="148.4" text-anchor="middle" font-family="sans-serif" font-size="10.5" fill="#64748b">Fast tokenizer 且 tokenizers≥0.22.0</text>
<rect x="694.0" y="94.0" width="46" height="20" rx="10.0" fill="#eef2ff" stroke="#6366f1" stroke-width="1.2"/>
<text x="717.0" y="108.0" text-anchor="middle" font-family="sans-serif" font-size="11" font-weight="bold" fill="#4338ca">§9.1</text>
<rect x="439.0" y="182.0" width="293.0" height="60" rx="12" fill="#ffffff" stroke="#475569" stroke-width="1.5"/>
<text x="585.5" y="207.2" text-anchor="middle" font-family="sans-serif" font-size="13" font-weight="bold" fill="#0f172a">SlowIncrementalDetokenizer</text>
<text x="585.5" y="226.4" text-anchor="middle" font-family="sans-serif" font-size="10.5" fill="#64748b">其余情况兜底，纯 Python 慢路径</text>
<rect x="694.0" y="172.0" width="46" height="20" rx="10.0" fill="#eef2ff" stroke="#6366f1" stroke-width="1.2"/>
<text x="717.0" y="186.0" text-anchor="middle" font-family="sans-serif" font-size="11" font-weight="bold" fill="#4338ca">§9.1</text>
<rect x="766.0" y="104.0" width="293.0" height="60" rx="12" fill="#ffffff" stroke="#475569" stroke-width="1.5"/>
<text x="912.5" y="129.2" text-anchor="middle" font-family="sans-serif" font-size="13" font-weight="bold" fill="#0f172a">update</text>
<text x="912.5" y="148.4" text-anchor="middle" font-family="sans-serif" font-size="10.5" fill="#64748b">逐 token decode，min_tokens 双闸推进</text>
<rect x="1021.0" y="94.0" width="46" height="20" rx="10.0" fill="#eef2ff" stroke="#6366f1" stroke-width="1.2"/>
<text x="1044.0" y="108.0" text-anchor="middle" font-family="sans-serif" font-size="11" font-weight="bold" fill="#4338ca">§9.2</text>
<rect x="112.0" y="418.0" width="293.0" height="60" rx="12" fill="#ffffff" stroke="#475569" stroke-width="1.5"/>
<text x="258.5" y="443.2" text-anchor="middle" font-family="sans-serif" font-size="13" font-weight="bold" fill="#0f172a">decode_next</text>
<text x="258.5" y="462.4" text-anchor="middle" font-family="sans-serif" font-size="10.5" fill="#64748b">Fast：_protected_step 驱动 DecodeStream</text>
<rect x="367.0" y="408.0" width="46" height="20" rx="10.0" fill="#eef2ff" stroke="#6366f1" stroke-width="1.2"/>
<text x="390.0" y="422.0" text-anchor="middle" font-family="sans-serif" font-size="11" font-weight="bold" fill="#4338ca">§9.6</text>
<rect x="112.0" y="496.0" width="293.0" height="60" rx="12" fill="#ffffff" stroke="#475569" stroke-width="1.5"/>
<text x="258.5" y="521.2" text-anchor="middle" font-family="sans-serif" font-size="13" font-weight="bold" fill="#0f172a">decode_next</text>
<text x="258.5" y="540.4" text-anchor="middle" font-family="sans-serif" font-size="10.5" fill="#64748b">Slow：双 offset 窗口对抗空格清理</text>
<rect x="367.0" y="486.0" width="46" height="20" rx="10.0" fill="#eef2ff" stroke="#6366f1" stroke-width="1.2"/>
<text x="390.0" y="500.0" text-anchor="middle" font-family="sans-serif" font-size="11" font-weight="bold" fill="#4338ca">§9.5</text>
<rect x="439.0" y="418.0" width="293.0" height="60" rx="12" fill="#ffffff" stroke="#475569" stroke-width="1.5"/>
<text x="585.5" y="443.2" text-anchor="middle" font-family="sans-serif" font-size="13" font-weight="bold" fill="#0f172a">check_stop_strings</text>
<text x="585.5" y="462.4" text-anchor="middle" font-family="sans-serif" font-size="10.5" fill="#64748b">窗口内 find，算截断 offset</text>
<rect x="694.0" y="408.0" width="46" height="20" rx="10.0" fill="#eef2ff" stroke="#6366f1" stroke-width="1.2"/>
<text x="717.0" y="422.0" text-anchor="middle" font-family="sans-serif" font-size="11" font-weight="bold" fill="#4338ca">§9.4</text>
<rect x="766.0" y="418.0" width="293.0" height="60" rx="12" fill="#ffffff" stroke="#475569" stroke-width="1.5"/>
<text x="912.5" y="443.2" text-anchor="middle" font-family="sans-serif" font-size="13" font-weight="bold" fill="#0f172a">get_next_output_text</text>
<text x="912.5" y="462.4" text-anchor="middle" font-family="sans-serif" font-size="10.5" fill="#64748b">尾部扣 stop_buffer_length 字符</text>
<rect x="1021.0" y="408.0" width="46" height="20" rx="10.0" fill="#eef2ff" stroke="#6366f1" stroke-width="1.2"/>
<text x="1044.0" y="422.0" text-anchor="middle" font-family="sans-serif" font-size="11" font-weight="bold" fill="#4338ca">§9.3</text>
<rect x="1093.0" y="418.0" width="293.0" height="60" rx="12" fill="#ffffff" stroke="#475569" stroke-width="1.5"/>
<text x="1239.5" y="443.2" text-anchor="middle" font-family="sans-serif" font-size="13" font-weight="bold" fill="#0f172a">process_outputs</text>
<text x="1239.5" y="462.4" text-anchor="middle" font-family="sans-serif" font-size="10.5" fill="#64748b">stop_string→finish_reason，回灌 reqs_to_abort</text>
<rect x="1348.0" y="408.0" width="46" height="20" rx="10.0" fill="#eef2ff" stroke="#6366f1" stroke-width="1.2"/>
<text x="1371.0" y="422.0" text-anchor="middle" font-family="sans-serif" font-size="11" font-weight="bold" fill="#4338ca">§9.7</text>
<text x="16" y="591.0" font-family="sans-serif" font-size="12.5" font-weight="bold" fill="#334155">阅读路线(标号=图上 § 站牌;实线蓝=推荐 / 虚线灰=次要)</text>
<text x="16" y="622.0" font-family="sans-serif" font-size="12" fill="#0f172a">Fast 路径(多数请求)</text>
<line x1="160.7" y1="618.0" x2="1386.0" y2="618.0" stroke="#3b82f6" stroke-width="3"/>
<rect x="137.7" y="608.0" width="46" height="20" rx="10.0" fill="#eef2ff" stroke="#6366f1" stroke-width="1.2"/>
<text x="160.7" y="622.0" text-anchor="middle" font-family="sans-serif" font-size="11" font-weight="bold" fill="#4338ca">§9.1</text>
<rect x="382.8" y="608.0" width="46" height="20" rx="10.0" fill="#eef2ff" stroke="#6366f1" stroke-width="1.2"/>
<text x="405.8" y="622.0" text-anchor="middle" font-family="sans-serif" font-size="11" font-weight="bold" fill="#4338ca">§9.2</text>
<rect x="627.8" y="608.0" width="46" height="20" rx="10.0" fill="#eef2ff" stroke="#6366f1" stroke-width="1.2"/>
<text x="650.8" y="622.0" text-anchor="middle" font-family="sans-serif" font-size="11" font-weight="bold" fill="#4338ca">§9.6</text>
<rect x="872.9" y="608.0" width="46" height="20" rx="10.0" fill="#eef2ff" stroke="#6366f1" stroke-width="1.2"/>
<text x="895.9" y="622.0" text-anchor="middle" font-family="sans-serif" font-size="11" font-weight="bold" fill="#4338ca">§9.4</text>
<rect x="1118.0" y="608.0" width="46" height="20" rx="10.0" fill="#eef2ff" stroke="#6366f1" stroke-width="1.2"/>
<text x="1141.0" y="622.0" text-anchor="middle" font-family="sans-serif" font-size="11" font-weight="bold" fill="#4338ca">§9.3</text>
<rect x="1363.0" y="608.0" width="46" height="20" rx="10.0" fill="#eef2ff" stroke="#6366f1" stroke-width="1.2"/>
<text x="1386.0" y="622.0" text-anchor="middle" font-family="sans-serif" font-size="11" font-weight="bold" fill="#4338ca">§9.7</text>
<text x="16" y="662.0" font-family="sans-serif" font-size="12" fill="#0f172a">Slow 路径(兜底)</text>
<line x1="160.7" y1="658.0" x2="1386.0" y2="658.0" stroke="#94a3b8" stroke-width="1.5" stroke-dasharray="6,4"/>
<rect x="137.7" y="648.0" width="46" height="20" rx="10.0" fill="#eef2ff" stroke="#6366f1" stroke-width="1.2"/>
<text x="160.7" y="662.0" text-anchor="middle" font-family="sans-serif" font-size="11" font-weight="bold" fill="#4338ca">§9.1</text>
<rect x="382.8" y="648.0" width="46" height="20" rx="10.0" fill="#eef2ff" stroke="#6366f1" stroke-width="1.2"/>
<text x="405.8" y="662.0" text-anchor="middle" font-family="sans-serif" font-size="11" font-weight="bold" fill="#4338ca">§9.2</text>
<rect x="627.8" y="648.0" width="46" height="20" rx="10.0" fill="#eef2ff" stroke="#6366f1" stroke-width="1.2"/>
<text x="650.8" y="662.0" text-anchor="middle" font-family="sans-serif" font-size="11" font-weight="bold" fill="#4338ca">§9.5</text>
<rect x="872.9" y="648.0" width="46" height="20" rx="10.0" fill="#eef2ff" stroke="#6366f1" stroke-width="1.2"/>
<text x="895.9" y="662.0" text-anchor="middle" font-family="sans-serif" font-size="11" font-weight="bold" fill="#4338ca">§9.4</text>
<rect x="1118.0" y="648.0" width="46" height="20" rx="10.0" fill="#eef2ff" stroke="#6366f1" stroke-width="1.2"/>
<text x="1141.0" y="662.0" text-anchor="middle" font-family="sans-serif" font-size="11" font-weight="bold" fill="#4338ca">§9.3</text>
<rect x="1363.0" y="648.0" width="46" height="20" rx="10.0" fill="#eef2ff" stroke="#6366f1" stroke-width="1.2"/>
<text x="1386.0" y="662.0" text-anchor="middle" font-family="sans-serif" font-size="11" font-weight="bold" fill="#4338ca">§9.7</text>
</svg>