<svg xmlns="http://www.w3.org/2000/svg" viewBox="0 0 1458 580">
<defs><marker id="mEntry" viewBox="0 0 10 6" refX="9" refY="3" markerWidth="7" markerHeight="5" orient="auto"><path d="M0,0 L10,3 L0,6 Z" fill="#22c55e"/></marker><marker id="mExit" viewBox="0 0 10 6" refX="9" refY="3" markerWidth="7" markerHeight="5" orient="auto"><path d="M0,0 L10,3 L0,6 Z" fill="#f97316"/></marker><marker id="mMain" viewBox="0 0 10 6" refX="9" refY="3" markerWidth="7" markerHeight="5" orient="auto"><path d="M0,0 L10,3 L0,6 Z" fill="#3b82f6"/></marker><marker id="mBranch" viewBox="0 0 10 6" refX="9" refY="3" markerWidth="7" markerHeight="5" orient="auto"><path d="M0,0 L10,3 L0,6 Z" fill="#b45309"/></marker></defs>
<rect width="1458" height="580" fill="white"/>
<text x="729.0" y="32" text-anchor="middle" font-family="sans-serif" font-size="15" font-weight="bold" fill="#0f172a">第 11 章 · run() 一次 launch 的脊柱剖面——从缓存查询到编译再到内核发射</text>
<rect x="86" y="53" width="14" height="14" rx="3" fill="#22c55e"/>
<text x="106" y="64" font-family="sans-serif" font-size="11" fill="#0f172a">入口:用户代码 fn[grid](args) 调用 run()</text>
<rect x="368.7399999999999" y="53" width="14" height="14" rx="3" fill="#3b82f6"/>
<text x="388.7399999999999" y="64" font-family="sans-serif" font-size="11" fill="#0f172a">章内主线调用边 / 常规节点</text>
<rect x="556.8799999999999" y="53" width="14" height="14" rx="3" fill="#b45309"/>
<text x="576.8799999999999" y="64" font-family="sans-serif" font-size="11" fill="#0f172a">橙红:未命中才展开的编译慢路径(条件分支)</text>
<rect x="86" y="71" width="14" height="14" rx="3" fill="#b91c1c"/>
<text x="106" y="82" font-family="sans-serif" font-size="11" fill="#0f172a">红:该步需要真实 GPU 设备(host 无 GPU 在此断裂)</text>
<rect x="402.8399999999999" y="71" width="14" height="14" rx="3" fill="#f97316"/>
<text x="422.8399999999999" y="82" font-family="sans-serif" font-size="11" fill="#0f172a">出口:返回调用方 / 下一章(driver 子系统·ch12,compile 内部·ch14)</text>
<rect x="0" y="96.0" width="1458" height="226.0" fill="#f8fafc"/>
<text x="16" y="114.0" font-family="sans-serif" font-size="13" font-weight="bold" fill="#334155">JITFunction.run 一次 launch 的主脊——python/triton/runtime/jit.py + compiler.py</text>
<line x1="0" y1="322.0" x2="1458" y2="322.0" stroke="#e2e8f0" stroke-width="1"/>
<rect x="12" y="237.0" width="52" height="26" rx="13.0" fill="#dcfce7" stroke="#22c55e" stroke-width="1.3"/>
<text x="38.0" y="254.0" text-anchor="middle" font-family="sans-serif" font-size="10.5" font-weight="bold" fill="#166534">用户代码</text>
<line x1="64" y1="250.0" x2="86.0" y2="250.0" stroke="#22c55e" stroke-width="2" marker-end="url(#mEntry)"/>
<rect x="1394.0" y="237.0" width="52" height="26" rx="13.0" fill="#ffedd5" stroke="#f97316" stroke-width="1.3"/>
<text x="1420.0" y="254.0" text-anchor="middle" font-family="sans-serif" font-size="10.5" font-weight="bold" fill="#9a3412">下一章</text>
<line x1="1372.0" y1="250.0" x2="1394.0" y2="250.0" stroke="#f97316" stroke-width="2" marker-end="url(#mExit)"/>
<line x1="224.0" y1="262.0" x2="250.0" y2="262.0" stroke="#3b82f6" stroke-width="2" marker-end="url(#mMain)"/>
<line x1="388.0" y1="262.0" x2="414.0" y2="262.0" stroke="#3b82f6" stroke-width="2" marker-end="url(#mMain)"/>
<line x1="552.0" y1="238.0" x2="578.0" y2="238.0" stroke="#b45309" stroke-width="2" stroke-dasharray="6,4" marker-end="url(#mBranch)"/>
<text x="565.0" y="232.0" text-anchor="middle" font-family="sans-serif" font-size="10.5" fill="#b45309">未命中</text>
<line x1="716.0" y1="238.0" x2="742.0" y2="238.0" stroke="#b45309" stroke-width="2" stroke-dasharray="6,4" marker-end="url(#mBranch)"/>
<text x="729.0" y="232.0" text-anchor="middle" font-family="sans-serif" font-size="10.5" fill="#b45309">回填后</text>
<path d="M 483.0,194.0 C 483.0,146.0 811.0,146.0 811.0,194.0" fill="none" stroke="#3b82f6" stroke-width="2.2" marker-end="url(#mMain)"/>
<text x="647.0" y="140.0" text-anchor="middle" font-family="sans-serif" font-size="11" font-weight="bold" fill="#3b82f6">命中直达</text>
<line x1="880.0" y1="262.0" x2="906.0" y2="262.0" stroke="#3b82f6" stroke-width="2" marker-end="url(#mMain)"/>
<line x1="1044.0" y1="262.0" x2="1070.0" y2="262.0" stroke="#3b82f6" stroke-width="2" marker-end="url(#mMain)"/>
<line x1="1208.0" y1="262.0" x2="1234.0" y2="262.0" stroke="#3b82f6" stroke-width="2" marker-end="url(#mMain)"/>
<rect x="86.0" y="194.0" width="138" height="112" rx="12" fill="#fee2e2" stroke="#b91c1c" stroke-width="1.6"/>
<text x="155.0" y="227.6" text-anchor="middle" font-family="sans-serif" font-size="12.5" font-weight="bold" fill="#0f172a">driver.active</text>
<text x="155.0" y="261.2" text-anchor="middle" font-family="sans-serif" font-size="8" fill="#64748b">取 device/stream/target </text>
<text x="155.0" y="272.2" text-anchor="middle" font-family="sans-serif" font-size="8" fill="#64748b">+ make_backend</text>
<rect x="160.0" y="184.0" width="74.0" height="20" rx="10.0" fill="#eef2ff" stroke="#6366f1" stroke-width="1.2"/>
<text x="197.0" y="198.0" text-anchor="middle" font-family="sans-serif" font-size="11" font-weight="bold" fill="#4338ca">边界一跳</text>
<circle cx="88.0" cy="196.0" r="10" fill="#b91c1c" stroke="white" stroke-width="1.5"/>
<text x="88.0" y="200.0" text-anchor="middle" font-family="sans-serif" font-size="11" font-weight="bold" fill="white">!</text>
<rect x="250.0" y="194.0" width="138" height="112" rx="12" fill="#ffffff" stroke="#475569" stroke-width="1.6"/>
<text x="319.0" y="227.6" text-anchor="middle" font-family="sans-serif" font-size="12.5" font-weight="bold" fill="#0f172a">create_binder</text>
<text x="319.0" y="261.2" text-anchor="middle" font-family="sans-serif" font-size="8.5" fill="#64748b">惰性建 binder,调它得 5 元组</text>
<rect x="317.3" y="184.0" width="80.7" height="20" rx="10.0" fill="#eef2ff" stroke="#6366f1" stroke-width="1.2"/>
<text x="357.7" y="198.0" text-anchor="middle" font-family="sans-serif" font-size="11" font-weight="bold" fill="#4338ca">惰性 binder</text>
<rect x="414.0" y="194.0" width="138" height="112" rx="12" fill="#ffffff" stroke="#475569" stroke-width="1.6"/>
<text x="483.0" y="227.6" text-anchor="middle" font-family="sans-serif" font-size="11.5" font-weight="bold" fill="#0f172a">self.cache[device]</text>
<text x="483.0" y="261.2" text-anchor="middle" font-family="sans-serif" font-size="10.5" fill="#64748b">拼 key,查内存 cache</text>
<rect x="476.7" y="184.0" width="85.3" height="20" rx="10.0" fill="#eef2ff" stroke="#6366f1" stroke-width="1.2"/>
<text x="519.4" y="198.0" text-anchor="middle" font-family="sans-serif" font-size="11" font-weight="bold" fill="#4338ca">拼键查 cache</text>
<rect x="578.0" y="194.0" width="138" height="112" rx="12" fill="#fef3c7" stroke="#b45309" stroke-width="1.6"/>
<text x="647.0" y="227.6" text-anchor="middle" font-family="sans-serif" font-size="12.5" font-weight="bold" fill="#0f172a">compile</text>
<text x="647.0" y="261.2" text-anchor="middle" font-family="sans-serif" font-size="10.5" fill="#64748b">未命中才现造整套编译输入</text>
<rect x="652.0" y="184.0" width="74.0" height="20" rx="10.0" fill="#eef2ff" stroke="#6366f1" stroke-width="1.2"/>
<text x="689.0" y="198.0" text-anchor="middle" font-family="sans-serif" font-size="11" font-weight="bold" fill="#4338ca">慢路径</text>
<rect x="742.0" y="194.0" width="138" height="112" rx="12" fill="#ffffff" stroke="#475569" stroke-width="1.6"/>
<text x="811.0" y="227.6" text-anchor="middle" font-family="sans-serif" font-size="9.5" font-weight="bold" fill="#0f172a">grid_0, grid_1, grid_2</text>
<text x="811.0" y="261.2" text-anchor="middle" font-family="sans-serif" font-size="8.5" fill="#64748b">callable grid 求值,补齐三维</text>
<rect x="811.1" y="184.0" width="78.9" height="20" rx="10.0" fill="#eef2ff" stroke="#6366f1" stroke-width="1.2"/>
<text x="850.5" y="198.0" text-anchor="middle" font-family="sans-serif" font-size="11" font-weight="bold" fill="#4338ca">规范化 grid</text>
<rect x="906.0" y="194.0" width="138" height="112" rx="12" fill="#fee2e2" stroke="#b91c1c" stroke-width="1.6"/>
<text x="975.0" y="227.6" text-anchor="middle" font-family="sans-serif" font-size="12.5" font-weight="bold" fill="#0f172a">kernel.run</text>
<text x="975.0" y="261.2" text-anchor="middle" font-family="sans-serif" font-size="9.5" fill="#64748b">跨语言交给 C++ launcher</text>
<rect x="980.0" y="184.0" width="74.0" height="20" rx="10.0" fill="#eef2ff" stroke="#6366f1" stroke-width="1.2"/>
<text x="1017.0" y="198.0" text-anchor="middle" font-family="sans-serif" font-size="11" font-weight="bold" fill="#4338ca">跨语言发射</text>
<circle cx="908.0" cy="196.0" r="10" fill="#b91c1c" stroke="white" stroke-width="1.5"/>
<text x="908.0" y="200.0" text-anchor="middle" font-family="sans-serif" font-size="11" font-weight="bold" fill="white">!</text>
<rect x="1070.0" y="194.0" width="138" height="112" rx="12" fill="#fee2e2" stroke="#b91c1c" stroke-width="1.6"/>
<text x="1139.0" y="227.6" text-anchor="middle" font-family="sans-serif" font-size="12.5" font-weight="bold" fill="#0f172a">_init_handles</text>
<text x="1139.0" y="261.2" text-anchor="middle" font-family="sans-serif" font-size="8" fill="#64748b">首次读 .run 才装 cubin 到设备</text>
<rect x="1138.0" y="184.0" width="80.0" height="20" rx="10.0" fill="#eef2ff" stroke="#6366f1" stroke-width="1.2"/>
<text x="1178.0" y="198.0" text-anchor="middle" font-family="sans-serif" font-size="11" font-weight="bold" fill="#4338ca">惰性设备句柄</text>
<circle cx="1072.0" cy="196.0" r="10" fill="#b91c1c" stroke="white" stroke-width="1.5"/>
<text x="1072.0" y="200.0" text-anchor="middle" font-family="sans-serif" font-size="11" font-weight="bold" fill="white">!</text>
<rect x="1234.0" y="194.0" width="138" height="112" rx="12" fill="#ffffff" stroke="#475569" stroke-width="1.6"/>
<text x="1303.0" y="227.6" text-anchor="middle" font-family="sans-serif" font-size="12.5" font-weight="bold" fill="#0f172a">三档开销判据</text>
<text x="1303.0" y="261.2" text-anchor="middle" font-family="sans-serif" font-size="8" fill="#64748b">命中µs / 热编ms / </text>
<text x="1303.0" y="272.2" text-anchor="middle" font-family="sans-serif" font-size="8" fill="#64748b">冷编s,发射受限的尺子</text>
<rect x="1308.0" y="184.0" width="74.0" height="20" rx="10.0" fill="#eef2ff" stroke="#6366f1" stroke-width="1.2"/>
<text x="1345.0" y="198.0" text-anchor="middle" font-family="sans-serif" font-size="11" font-weight="bold" fill="#4338ca">三档开销</text>
<text x="16" y="345.0" font-family="sans-serif" font-size="12.5" font-weight="bold" fill="#334155">阅读路线(标号=图上站牌文字,对应正文对应小节;实线蓝=推荐 / 虚线灰=次要)</text>
<text x="16" y="367.0" font-family="sans-serif" font-size="11.5" fill="#0f172a">全程走读(推荐):按章节顺序从边界一跳到发射收口</text>
<line x1="155.0" y1="386.0" x2="1139.0" y2="386.0" stroke="#3b82f6" stroke-width="3"/>
<rect x="118.0" y="376.0" width="74.0" height="20" rx="10.0" fill="#eef2ff" stroke="#6366f1" stroke-width="1.2"/>
<text x="155.0" y="390.0" text-anchor="middle" font-family="sans-serif" font-size="11" font-weight="bold" fill="#4338ca">边界一跳</text>
<rect x="278.7" y="376.0" width="80.7" height="20" rx="10.0" fill="#eef2ff" stroke="#6366f1" stroke-width="1.2"/>
<text x="319.0" y="390.0" text-anchor="middle" font-family="sans-serif" font-size="11" font-weight="bold" fill="#4338ca">惰性 binder</text>
<rect x="440.4" y="376.0" width="85.3" height="20" rx="10.0" fill="#eef2ff" stroke="#6366f1" stroke-width="1.2"/>
<text x="483.0" y="390.0" text-anchor="middle" font-family="sans-serif" font-size="11" font-weight="bold" fill="#4338ca">拼键查 cache</text>
<rect x="771.5" y="376.0" width="78.9" height="20" rx="10.0" fill="#eef2ff" stroke="#6366f1" stroke-width="1.2"/>
<text x="811.0" y="390.0" text-anchor="middle" font-family="sans-serif" font-size="11" font-weight="bold" fill="#4338ca">规范化 grid</text>
<rect x="938.0" y="376.0" width="74.0" height="20" rx="10.0" fill="#eef2ff" stroke="#6366f1" stroke-width="1.2"/>
<text x="975.0" y="390.0" text-anchor="middle" font-family="sans-serif" font-size="11" font-weight="bold" fill="#4338ca">跨语言发射</text>
<rect x="1099.0" y="376.0" width="80.0" height="20" rx="10.0" fill="#eef2ff" stroke="#6366f1" stroke-width="1.2"/>
<text x="1139.0" y="390.0" text-anchor="middle" font-family="sans-serif" font-size="11" font-weight="bold" fill="#4338ca">惰性设备句柄</text>
<text x="16" y="419.0" font-family="sans-serif" font-size="11.5" fill="#0f172a">cache 命中直达:③ 拼键查 cache 之后直接跳到 ⑤,不展开 ④</text>
<line x1="483.0" y1="438.0" x2="811.0" y2="438.0" stroke="#94a3b8" stroke-width="1.5" stroke-dasharray="6,4"/>
<rect x="440.4" y="428.0" width="85.3" height="20" rx="10.0" fill="#eef2ff" stroke="#6366f1" stroke-width="1.2"/>
<text x="483.0" y="442.0" text-anchor="middle" font-family="sans-serif" font-size="11" font-weight="bold" fill="#4338ca">拼键查 cache</text>
<rect x="771.5" y="428.0" width="78.9" height="20" rx="10.0" fill="#eef2ff" stroke="#6366f1" stroke-width="1.2"/>
<text x="811.0" y="442.0" text-anchor="middle" font-family="sans-serif" font-size="11" font-weight="bold" fill="#4338ca">规范化 grid</text>
<text x="16" y="471.0" font-family="sans-serif" font-size="11.5" fill="#0f172a">未命中慢路径:④ 查完 cache 才现造的编译派单</text>
<line x1="483.0" y1="490.0" x2="811.0" y2="490.0" stroke="#94a3b8" stroke-width="1.5" stroke-dasharray="6,4"/>
<rect x="440.4" y="480.0" width="85.3" height="20" rx="10.0" fill="#eef2ff" stroke="#6366f1" stroke-width="1.2"/>
<text x="483.0" y="494.0" text-anchor="middle" font-family="sans-serif" font-size="11" font-weight="bold" fill="#4338ca">拼键查 cache</text>
<rect x="610.0" y="480.0" width="74.0" height="20" rx="10.0" fill="#eef2ff" stroke="#6366f1" stroke-width="1.2"/>
<text x="647.0" y="494.0" text-anchor="middle" font-family="sans-serif" font-size="11" font-weight="bold" fill="#4338ca">慢路径</text>
<rect x="771.5" y="480.0" width="78.9" height="20" rx="10.0" fill="#eef2ff" stroke="#6366f1" stroke-width="1.2"/>
<text x="811.0" y="494.0" text-anchor="middle" font-family="sans-serif" font-size="11" font-weight="bold" fill="#4338ca">规范化 grid</text>
<text x="16" y="523.0" font-family="sans-serif" font-size="11.5" fill="#0f172a">只看性能结论:跳到全章最后一节读判据,不逐段跟读</text>
<line x1="155.0" y1="542.0" x2="1303.0" y2="542.0" stroke="#94a3b8" stroke-width="1.5" stroke-dasharray="6,4"/>
<rect x="118.0" y="532.0" width="74.0" height="20" rx="10.0" fill="#eef2ff" stroke="#6366f1" stroke-width="1.2"/>
<text x="155.0" y="546.0" text-anchor="middle" font-family="sans-serif" font-size="11" font-weight="bold" fill="#4338ca">边界一跳</text>
<rect x="1266.0" y="532.0" width="74.0" height="20" rx="10.0" fill="#eef2ff" stroke="#6366f1" stroke-width="1.2"/>
<text x="1303.0" y="546.0" text-anchor="middle" font-family="sans-serif" font-size="11" font-weight="bold" fill="#4338ca">三档开销</text>
</svg>